<svg width="18" height="18" viewBox="0 0 18 18" fill="none" xmlns="http://www.w3.org/2000/svg">
  <path d="M6.08331 11.0833H11.9166M6.08331 6.91668H8.99998" stroke="#8C8EA5" stroke-width="1.25" stroke-linecap="round" stroke-linejoin="round"/>
  <path d="M10.8089 16.4088C14.2947 16.1771 17.0713 13.361 17.2998 9.82574C17.3445 9.13391 17.3445 8.41745 17.2998 7.72561C17.0713 4.19032 14.2947 1.37429 10.8089 1.14257C9.61962 1.06352 8.37799 1.06368 7.19118 1.14257C3.70534 1.37429 0.928695 4.19032 0.70022 7.72561C0.655509 8.41745 0.655509 9.13391 0.70022 9.82574C0.783433 11.1133 1.35288 12.3055 2.02328 13.3122C2.41253 14.0169 2.15564 14.8965 1.7502 15.6649C1.45786 16.2188 1.31169 16.4958 1.42906 16.6959C1.54642 16.896 1.80857 16.9024 2.33287 16.9152C3.36974 16.9404 4.06892 16.6465 4.62392 16.2372C4.93869 16.0051 5.09608 15.889 5.20455 15.8757C5.31302 15.8623 5.52649 15.9503 5.95336 16.1261C6.33702 16.2841 6.78249 16.3816 7.19118 16.4088C8.37799 16.4877 9.61962 16.4878 10.8089 16.4088Z" stroke="#8C8EA5" stroke-width="1.25" stroke-linejoin="round"/>
</svg>