<svg width="14" height="14" viewBox="0 0 14 14" fill="none" xmlns="http://www.w3.org/2000/svg">
  <path fill-rule="evenodd" clip-rule="evenodd" d="M10.6667 1.33965C10.5773 1.33546 10.4873 1.33334 10.3969 1.33334C7.26728 1.33334 4.73022 3.8704 4.73022 7.00001C4.73022 10.1296 7.26728 12.6667 10.3969 12.6667C10.4873 12.6667 10.5773 12.6646 10.6667 12.6604V1.33965Z" fill="#F07A37"/>
  <path fill-rule="evenodd" clip-rule="evenodd" d="M7.69843 0C7.81018 0 7.92133 0.00261904 8.03181 0.00779909V0.765062C5.51742 1.71938 3.73029 4.15099 3.73029 7.00001C3.73029 9.84903 5.51742 12.2806 8.03181 13.235V13.9922C7.92133 13.9974 7.81018 14 7.69843 14C3.83243 14 0.698425 10.866 0.698425 7C0.698425 3.13401 3.83243 0 7.69843 0Z" fill="#F07A37"/>
  <path fill-rule="evenodd" clip-rule="evenodd" d="M13.3016 2.67151C13.2332 2.66831 13.1644 2.66669 13.0952 2.66669C10.702 2.66669 8.7619 4.60679 8.7619 7.00002C8.7619 9.39325 10.702 11.3334 13.0952 11.3334C13.1644 11.3334 13.2332 11.3317 13.3016 11.3285V2.67151Z" fill="#F07A37"/>
</svg>