<svg width="18" height="18" viewBox="0 0 18 18" fill="none" xmlns="http://www.w3.org/2000/svg">
  <rect x="2.33331" y="0.666656" width="14.5833" height="16.6667" rx="3.33333" stroke="#8C8EA5" stroke-width="1.25"/>
  <path d="M7.82503 10.4507C7.30104 10.8017 5.92717 11.5184 6.76395 12.4152C7.17271 12.8534 7.62796 13.1667 8.20032 13.1667H11.4663C12.0387 13.1667 12.494 12.8534 12.9027 12.4152C13.7395 11.5184 12.3656 10.8017 11.8416 10.4507C10.6129 9.62757 9.05377 9.62757 7.82503 10.4507Z" fill="#8C8EA5"/>
  <path d="M11.5 6.50001C11.5 7.42049 10.7538 8.16668 9.83333 8.16668C8.91286 8.16668 8.16667 7.42049 8.16667 6.50001C8.16667 5.57954 8.91286 4.83334 9.83333 4.83334C10.7538 4.83334 11.5 5.57954 11.5 6.50001Z" fill="#8C8EA5"/>
  <path d="M7.82503 10.4507C7.30104 10.8017 5.92717 11.5184 6.76395 12.4152C7.17271 12.8534 7.62796 13.1667 8.20032 13.1667H11.4663C12.0387 13.1667 12.494 12.8534 12.9027 12.4152C13.7395 11.5184 12.3656 10.8017 11.8416 10.4507C10.6129 9.62757 9.05377 9.62757 7.82503 10.4507Z" stroke="#8C8EA5" stroke-width="1.25"/>
  <path d="M11.5 6.50001C11.5 7.42049 10.7538 8.16668 9.83333 8.16668C8.91286 8.16668 8.16667 7.42049 8.16667 6.50001C8.16667 5.57954 8.91286 4.83334 9.83333 4.83334C10.7538 4.83334 11.5 5.57954 11.5 6.50001Z" stroke="#8C8EA5" stroke-width="1.25"/>
  <path d="M3.16665 4L1.08331 4M3.16665 9L1.08331 9M3.16665 14H1.08331" stroke="#8C8EA5" stroke-width="1.25" stroke-linecap="round" stroke-linejoin="round"/>
</svg>