<svg width="16" height="18" viewBox="0 0 16 18" fill="none" xmlns="http://www.w3.org/2000/svg">
  <path d="M0.916687 7.33332C0.916687 4.19063 0.916687 2.61928 1.95402 1.64297C2.99135 0.666656 4.66091 0.666656 8.00002 0.666656H8.64396C11.3616 0.666656 12.7205 0.666656 13.6641 1.33152C13.9345 1.52201 14.1745 1.74793 14.3769 2.0024C15.0834 2.89055 15.0834 4.16945 15.0834 6.72726V8.84848C15.0834 11.3178 15.0834 12.5524 14.6926 13.5385C14.0643 15.1238 12.7357 16.3743 11.0514 16.9655C10.0037 17.3333 8.69184 17.3333 6.0682 17.3333C4.56898 17.3333 3.81937 17.3333 3.22067 17.1232C2.25818 16.7853 1.49898 16.0707 1.13999 15.1649C0.916687 14.6014 0.916687 13.8959 0.916687 12.4848V7.33332Z" stroke="#8C8EA5" stroke-width="1.25" stroke-linejoin="round"/>
  <path d="M15.0833 9C15.0833 10.5341 13.8397 11.7778 12.3056 11.7778C11.7507 11.7778 11.0966 11.6806 10.5572 11.8251C10.0779 11.9535 9.70353 12.3279 9.5751 12.8072C9.43056 13.3466 9.52778 14.0007 9.52778 14.5556C9.52778 16.0897 8.28412 17.3333 6.75 17.3333" stroke="#8C8EA5" stroke-width="1.25" stroke-linecap="round" stroke-linejoin="round"/>
  <path d="M4.66669 4.83334H10.5" stroke="#8C8EA5" stroke-width="1.25" stroke-linecap="round" stroke-linejoin="round"/>
  <path d="M4.66669 8.16666H7.16669" stroke="#8C8EA5" stroke-width="1.25" stroke-linecap="round" stroke-linejoin="round"/>
</svg>