<svg width="18" height="18" viewBox="0 0 18 18" fill="none" xmlns="http://www.w3.org/2000/svg">
  <path d="M0.666687 12.3333C0.666687 10.3843 0.666687 9.40973 1.11374 8.69825C1.34686 8.32724 1.66058 8.01352 2.03159 7.7804C2.74308 7.33334 3.71761 7.33334 5.66669 7.33334H12.3334C14.2824 7.33334 15.257 7.33334 15.9684 7.7804C16.3395 8.01352 16.6532 8.32724 16.8863 8.69825C17.3334 9.40973 17.3334 10.3843 17.3334 12.3333C17.3334 14.2824 17.3334 15.257 16.8863 15.9684C16.6532 16.3394 16.3395 16.6532 15.9684 16.8863C15.257 17.3333 14.2824 17.3333 12.3334 17.3333H5.66669C3.71761 17.3333 2.74308 17.3333 2.03159 16.8863C1.66058 16.6532 1.34686 16.3394 1.11374 15.9684C0.666687 15.257 0.666687 14.2824 0.666687 12.3333Z" stroke="#8C8EA5" stroke-width="1.25" stroke-linecap="round" stroke-linejoin="round"/>
  <path d="M15.6666 7.33333C15.6666 6.16656 15.6666 5.58317 15.4396 5.13752C15.2398 4.74552 14.9211 4.42681 14.5291 4.22707C14.0835 4 13.5001 4 12.3333 4H5.66665C4.49987 4 3.91648 4 3.47083 4.22707C3.07883 4.42681 2.76012 4.74552 2.56038 5.13752C2.33331 5.58317 2.33331 6.16656 2.33331 7.33333" stroke="#8C8EA5" stroke-width="1.25" stroke-linecap="round" stroke-linejoin="round"/>
  <path d="M14 3.99999C14 2.42864 14 1.64297 13.5118 1.15481C13.0237 0.666656 12.238 0.666656 10.6667 0.666656H7.33333C5.76198 0.666656 4.97631 0.666656 4.48816 1.15481C4 1.64297 4 2.42864 4 3.99999" stroke="#8C8EA5" stroke-width="1.25" stroke-linecap="round" stroke-linejoin="round"/>
  <path d="M11.5 10.6667C11.5 11.5871 10.7538 12.3333 9.83333 12.3333H8.16667C7.24619 12.3333 6.5 11.5871 6.5 10.6667" stroke="#8C8EA5" stroke-width="1.25" stroke-linecap="round"/>
</svg>