<svg width="18" height="18" viewBox="0 0 18 18" fill="none" xmlns="http://www.w3.org/2000/svg">
  <path d="M4.83331 13.1667L4.83331 9.83334" stroke="#50A3D2" stroke-width="1.25" stroke-linecap="round"/>
  <path d="M9 13.1667L9 4.83334" stroke="#50A3D2" stroke-width="1.25" stroke-linecap="round"/>
  <path d="M13.1667 13.1667L13.1667 8.16667" stroke="#50A3D2" stroke-width="1.25" stroke-linecap="round"/>
  <path d="M1.08331 9C1.08331 5.26805 1.08331 3.40207 2.24268 2.2427C3.40205 1.08334 5.26803 1.08334 8.99998 1.08334C12.7319 1.08334 14.5979 1.08334 15.7573 2.2427C16.9166 3.40207 16.9166 5.26805 16.9166 9C16.9166 12.732 16.9166 14.5979 15.7573 15.7573C14.5979 16.9167 12.7319 16.9167 8.99998 16.9167C5.26803 16.9167 3.40205 16.9167 2.24268 15.7573C1.08331 14.5979 1.08331 12.732 1.08331 9Z" stroke="#50A3D2" stroke-width="1.25" stroke-linejoin="round"/>
</svg>