<svg width="18" height="18" viewBox="0 0 18 18" fill="none" xmlns="http://www.w3.org/2000/svg">
  <path d="M1.08331 9.00001C1.08331 5.26806 1.08331 3.40208 2.24268 2.24271C3.40205 1.08334 5.26803 1.08334 8.99998 1.08334C12.7319 1.08334 14.5979 1.08334 15.7573 2.24271C16.9166 3.40208 16.9166 5.26806 16.9166 9.00001C16.9166 12.732 16.9166 14.5979 15.7573 15.7573C14.5979 16.9167 12.7319 16.9167 8.99998 16.9167C5.26803 16.9167 3.40205 16.9167 2.24268 15.7573C1.08331 14.5979 1.08331 12.732 1.08331 9.00001Z" stroke="#8C8EA5" stroke-width="1.25" stroke-linecap="round" stroke-linejoin="round"/>
  <path d="M16.9166 10.25H12.8119C12.1102 10.25 11.5588 10.8363 11.2495 11.456C10.9135 12.1293 10.2407 12.75 8.99998 12.75C7.75925 12.75 7.08642 12.1293 6.75043 11.456C6.44116 10.8363 5.88979 10.25 5.18803 10.25H1.08331" stroke="#8C8EA5" stroke-width="1.25" stroke-linejoin="round"/>
</svg>