<svg width="18" height="18" viewBox="0 0 18 18" fill="none" xmlns="http://www.w3.org/2000/svg">
  <path d="M11.6093 1.08334C10.7885 0.812961 9.91135 0.666672 9.00002 0.666672C4.39765 0.666672 0.666687 4.39763 0.666687 9C0.666687 13.6024 4.39765 17.3333 9.00002 17.3333C13.6024 17.3333 17.3334 13.6024 17.3334 9C17.3334 8.129 17.1997 7.28921 16.9519 6.5" stroke="#DF5FFE" stroke-width="1.25" stroke-linecap="round"/>
  <path d="M13.1666 8.99999C13.1666 11.3012 11.3012 13.1667 8.99998 13.1667C6.69879 13.1667 4.83331 11.3012 4.83331 8.99999C4.83331 6.69881 6.69879 4.83333 8.99998 4.83333" stroke="#DF5FFE" stroke-width="1.25" stroke-linecap="round" stroke-linejoin="round"/>
  <path d="M15.25 2.74999L9 9M15.25 2.74999V0.666656M15.25 2.74999H17.3333" stroke="#DF5FFE" stroke-width="1.25" stroke-linecap="round"/>
</svg>