<svg width="18" height="18" viewBox="0 0 18 18" fill="none" xmlns="http://www.w3.org/2000/svg">
  <path d="M6.5 2.75C3.58702 3.75087 1.5 6.45146 1.5 9.6259C1.5 10.6315 1.70945 11.5896 2.08826 12.4612M11.5 2.75C14.413 3.75087 16.5 6.45146 16.5 9.6259C16.5 10.478 16.3496 11.296 16.0732 12.0562M12.75 15.9413C11.6469 16.5616 10.3661 16.9167 9 16.9167C7.63392 16.9167 6.35315 16.5616 5.25 15.9413" stroke="#8C8EA5" stroke-width="1.25"/>
  <path d="M11.5 3.16667C11.5 4.54738 10.3807 5.66667 9 5.66667C7.61929 5.66667 6.5 4.54738 6.5 3.16667C6.5 1.78596 7.61929 0.666672 9 0.666672C10.3807 0.666672 11.5 1.78596 11.5 3.16667Z" stroke="#8C8EA5" stroke-width="1.25"/>
  <circle cx="3.16669" cy="14.8333" r="2.5" stroke="#8C8EA5" stroke-width="1.25"/>
  <circle cx="14.8333" cy="14.8333" r="2.5" stroke="#8C8EA5" stroke-width="1.25"/>
</svg>