<svg width="18" height="18" viewBox="0 0 18 18" fill="none" xmlns="http://www.w3.org/2000/svg">
  <path d="M16.7646 4.95117L16.3533 4.23734C16.0422 3.69748 15.8866 3.42755 15.622 3.31991C15.3573 3.21227 15.058 3.29721 14.4594 3.46708L13.4426 3.75349C13.0604 3.84162 12.6594 3.79163 12.3105 3.61234L12.0297 3.45036C11.7305 3.25871 11.5003 2.97612 11.3729 2.64396L11.0946 1.81281C10.9117 1.26279 10.8202 0.987784 10.6024 0.830485C10.3846 0.673187 10.0952 0.673187 9.5166 0.673187L8.58762 0.673187C8.00899 0.673187 7.71968 0.673187 7.50186 0.830485C7.28405 0.987784 7.19256 1.26279 7.00958 1.81281L6.73129 2.64396C6.60388 2.97612 6.37372 3.25871 6.07448 3.45036L5.79375 3.61234C5.44479 3.79163 5.04383 3.84162 4.66166 3.75349L3.6448 3.46708C3.04619 3.29721 2.74688 3.21227 2.48224 3.31991C2.21759 3.42755 2.06205 3.69748 1.75097 4.23734L1.33965 4.95117C1.04806 5.45721 0.902263 5.71023 0.930558 5.97958C0.958855 6.24893 1.15403 6.46599 1.54439 6.90011L2.4036 7.8607C2.61359 8.12655 2.76268 8.58985 2.76268 9.00639C2.76268 9.42319 2.61364 9.88636 2.40362 10.1523L1.5444 11.1129C1.15404 11.547 0.958857 11.764 0.93056 12.0334C0.902263 12.3027 1.04806 12.5558 1.33965 13.0618L1.75096 13.7756C2.06203 14.3155 2.21759 14.5854 2.48224 14.6931C2.74689 14.8007 3.0462 14.7157 3.64482 14.5459L4.66163 14.2594C5.04387 14.1713 5.4449 14.2213 5.7939 14.4007L6.07459 14.5627C6.37377 14.7543 6.60388 15.0369 6.73126 15.369L7.00958 16.2002C7.19256 16.7502 7.28405 17.0253 7.50186 17.1826C7.71968 17.3399 8.00899 17.3399 8.58762 17.3399H9.5166C10.0952 17.3399 10.3846 17.3399 10.6024 17.1826C10.8202 17.0253 10.9117 16.7502 11.0946 16.2002L11.373 15.369C11.5003 15.0369 11.7305 14.7543 12.0296 14.5627L12.3103 14.4007C12.6593 14.2213 13.0604 14.1713 13.4426 14.2594L14.4594 14.5459C15.058 14.7157 15.3573 14.8007 15.622 14.6931C15.8866 14.5854 16.0422 14.3155 16.3533 13.7756L16.7646 13.0618L16.7646 13.0618C17.0562 12.5558 17.202 12.3027 17.1737 12.0334C17.1454 11.764 16.9502 11.547 16.5598 11.1129L15.7006 10.1523C15.4906 9.88636 15.3415 9.42319 15.3415 9.00639C15.3415 8.58985 15.4906 8.12655 15.7006 7.8607L16.5598 6.90011C16.9502 6.46599 17.1454 6.24893 17.1737 5.97958C17.202 5.71023 17.0562 5.45721 16.7646 4.95117Z" stroke="#8C8EA5" stroke-width="1.25" stroke-linecap="round"/>
  <path d="M11.9329 9.00001C11.9329 10.6108 10.6271 11.9167 9.01628 11.9167C7.40545 11.9167 6.09961 10.6108 6.09961 9.00001C6.09961 7.38918 7.40545 6.08334 9.01628 6.08334C10.6271 6.08334 11.9329 7.38918 11.9329 9.00001Z" stroke="#8C8EA5" stroke-width="1.25"/>
</svg>