<svg width="18" height="18" viewBox="0 0 18 18" fill="none" xmlns="http://www.w3.org/2000/svg">
  <path d="M8.16669 3.58333L16.5 3.58333" stroke="#8C8EA5" stroke-width="1.25" stroke-linecap="round"/>
  <path d="M3.5 13.0772C4.38889 13.6725 4.83333 13.9702 4.83333 14.4167C4.83333 14.8632 4.38889 15.1608 3.5 15.7561C2.61111 16.3515 2.16667 16.6491 1.83333 16.4259C1.5 16.2026 1.5 15.6073 1.5 14.4167C1.5 13.226 1.5 12.6307 1.83333 12.4074C2.16667 12.1842 2.61111 12.4819 3.5 13.0772Z" stroke="#8C8EA5" stroke-width="1.25" stroke-linecap="round"/>
  <path d="M3.5 2.24386C4.38889 2.83918 4.83333 3.13684 4.83333 3.58333C4.83333 4.02983 4.38889 4.32749 3.5 4.92281C2.61111 5.51813 2.16667 5.81579 1.83333 5.59255C1.5 5.3693 1.5 4.77398 1.5 3.58333C1.5 2.39269 1.5 1.79737 1.83333 1.57412C2.16667 1.35088 2.61111 1.64854 3.5 2.24386Z" stroke="#8C8EA5" stroke-width="1.25" stroke-linecap="round"/>
  <path d="M8.16669 9L16.5 9" stroke="#8C8EA5" stroke-width="1.25" stroke-linecap="round"/>
  <path d="M8.16669 14.4167L16.5 14.4167" stroke="#8C8EA5" stroke-width="1.25" stroke-linecap="round"/>
</svg>