<svg width="18" height="18" viewBox="0 0 18 18" fill="none" xmlns="http://www.w3.org/2000/svg">
  <path d="M14 0.666656V2.33332M4 0.666656V2.33332" stroke="#8C8EA5" stroke-width="1.25" stroke-linecap="round" stroke-linejoin="round"/>
  <path d="M8.99627 9.83334H9.00374M8.99627 13.1667H9.00374M12.3259 9.83334H12.3333M5.66667 9.83334H5.67415M5.66667 13.1667H5.67415" stroke="#8C8EA5" stroke-width="1.66667" stroke-linecap="round" stroke-linejoin="round"/>
  <path d="M1.91667 5.66666H16.0833" stroke="#8C8EA5" stroke-width="1.25" stroke-linecap="round" stroke-linejoin="round"/>
  <path d="M1.08333 9.2027C1.08333 5.57161 1.08333 3.75607 2.12676 2.62803C3.17019 1.5 4.84957 1.5 8.20833 1.5H9.79166C13.1504 1.5 14.8298 1.5 15.8732 2.62803C16.9167 3.75607 16.9167 5.57161 16.9167 9.2027V9.63063C16.9167 13.2617 16.9167 15.0773 15.8732 16.2053C14.8298 17.3333 13.1504 17.3333 9.79166 17.3333H8.20833C4.84957 17.3333 3.17019 17.3333 2.12676 16.2053C1.08333 15.0773 1.08333 13.2617 1.08333 9.63063V9.2027Z" stroke="#8C8EA5" stroke-width="1.25" stroke-linecap="round" stroke-linejoin="round"/>
  <path d="M1.5 5.66666H16.5" stroke="#8C8EA5" stroke-width="1.25" stroke-linecap="round" stroke-linejoin="round"/>
</svg>