<svg width="18" height="18" viewBox="0 0 18 18" fill="none" xmlns="http://www.w3.org/2000/svg">
  <path d="M14.4167 12.3334C14.8381 12.743 16.5 13.8332 16.5 14.4167M14.4167 16.5C14.8381 16.0904 16.5 15.0002 16.5 14.4167M16.5 14.4167L9.83333 14.4167" stroke="#8C8EA5" stroke-width="1.25" stroke-linecap="round" stroke-linejoin="round"/>
  <path d="M8.16669 17.3334H7.93942C5.22174 17.3334 3.86291 17.3334 2.91925 16.6685C2.64887 16.478 2.40884 16.2521 2.20644 15.9976C1.50002 15.1095 1.50002 13.8306 1.50002 11.2728V9.15156C1.50002 6.68225 1.50002 5.44759 1.8908 4.4615C2.51903 2.87623 3.84763 1.62578 5.53199 1.0345C6.57971 0.666707 7.89153 0.666707 10.5152 0.666707C12.0144 0.666707 12.764 0.666707 13.3627 0.876874C14.3252 1.21475 15.0844 1.92929 15.4434 2.83516C15.6667 3.39864 15.6667 4.10416 15.6667 5.51519V9.83337" stroke="#8C8EA5" stroke-width="1.25" stroke-linecap="round" stroke-linejoin="round"/>
  <path d="M1.49998 9C1.49998 7.46588 2.74363 6.22222 4.27776 6.22222C4.83258 6.22222 5.48668 6.31944 6.02612 6.1749C6.50541 6.04647 6.87978 5.6721 7.00821 5.1928C7.15275 4.65336 7.05554 3.99926 7.05554 3.44444C7.05554 1.91032 8.29919 0.666667 9.83331 0.666667" stroke="#8C8EA5" stroke-width="1.25" stroke-linecap="round" stroke-linejoin="round"/>
</svg>