<svg width="18" height="20" viewBox="0 0 18 20" fill="none" xmlns="http://www.w3.org/2000/svg">
  <path d="M5.66669 18.3333V15.8333C5.66669 14.262 5.66669 13.4763 6.15484 12.9882C6.643 12.5 7.42867 12.5 9.00002 12.5C10.5714 12.5 11.357 12.5 11.8452 12.9882C12.3334 13.4763 12.3334 14.262 12.3334 15.8333V18.3333" stroke="#8C8EA5" stroke-width="1.5" stroke-linejoin="round"/>
  <path d="M7.33331 5.83331H10.6666" stroke="#8C8EA5" stroke-width="1.5" stroke-linecap="round" stroke-linejoin="round"/>
  <path d="M1.5 9.88203C1.5 6.06832 1.5 4.16146 2.65561 2.95328C2.69831 2.90864 2.74199 2.86496 2.78662 2.82227C3.9948 1.66666 5.90166 1.66666 9.71537 1.66666C10.6192 1.66666 11.0546 1.66979 11.469 1.82446C11.8681 1.9734 12.2024 2.25198 12.871 2.80915L14.7009 4.33409C15.5856 5.07133 16.0279 5.43995 16.264 5.94387C16.5 6.4478 16.5 7.0236 16.5 8.1752V10.8333C16.5 13.9581 16.5 15.5205 15.7042 16.6158C15.4472 16.9695 15.1362 17.2806 14.7824 17.5376C13.6872 18.3333 12.1248 18.3333 9 18.3333C5.87522 18.3333 4.31283 18.3333 3.21756 17.5376C2.86383 17.2806 2.55276 16.9695 2.29576 16.6158C1.5 15.5205 1.5 13.9581 1.5 10.8333V9.88203Z" stroke="#8C8EA5" stroke-width="1.5"/>
</svg>