<svg width="18" height="16" viewBox="0 0 18 16" fill="none" xmlns="http://www.w3.org/2000/svg">
  <path d="M16.5 3.41669C16.5 4.7974 15.3807 5.91669 14 5.91669C12.6193 5.91669 11.5 4.7974 11.5 3.41669C11.5 2.03597 12.6193 0.916687 14 0.916687C15.3807 0.916687 16.5 2.03597 16.5 3.41669Z" stroke="#8C8EA5" stroke-width="1.25"/>
  <path d="M6.5 8C6.5 9.38071 5.38071 10.5 4 10.5C2.61929 10.5 1.5 9.38071 1.5 8C1.5 6.61929 2.61929 5.5 4 5.5C5.38071 5.5 6.5 6.61929 6.5 8Z" stroke="#8C8EA5" stroke-width="1.25"/>
  <path d="M16.5 12.5834C16.5 13.9641 15.3807 15.0834 14 15.0834C12.6193 15.0834 11.5 13.9641 11.5 12.5834C11.5 11.2027 12.6193 10.0834 14 10.0834C15.3807 10.0834 16.5 11.2027 16.5 12.5834Z" stroke="#8C8EA5" stroke-width="1.25"/>
  <path d="M6.27377 6.95817L11.6904 4.45862M6.27377 9.04195L11.6904 11.5415" stroke="#8C8EA5" stroke-width="1.25"/>
</svg>