<svg width="18" height="18" viewBox="0 0 18 18" fill="none" xmlns="http://www.w3.org/2000/svg">
  <path d="M1.5 14.8333C1.5 16.0118 1.5 16.6011 1.86612 16.9672C2.23223 17.3333 2.82149 17.3333 4 17.3333C5.17851 17.3333 5.76777 17.3333 6.13388 16.9672C6.5 16.6011 6.5 16.0118 6.5 14.8333C6.5 13.6548 6.5 13.0655 6.13388 12.6994C5.76777 12.3333 5.17851 12.3333 4 12.3333C2.82149 12.3333 2.23223 12.3333 1.86612 12.6994C1.5 13.0655 1.5 13.6548 1.5 14.8333Z" stroke="#8C8EA5" stroke-width="1.25"/>
  <path d="M1.5 3.16663C1.5 4.34514 1.5 4.93439 1.86612 5.30051C2.23223 5.66663 2.82149 5.66663 4 5.66663C5.17851 5.66663 5.76777 5.66663 6.13388 5.30051C6.5 4.93439 6.5 4.34514 6.5 3.16663C6.5 1.98811 6.5 1.39886 6.13388 1.03274C5.76777 0.666626 5.17851 0.666626 4 0.666626C2.82149 0.666626 2.23223 0.666626 1.86612 1.03274C1.5 1.39886 1.5 1.98811 1.5 3.16663Z" stroke="#8C8EA5" stroke-width="1.25"/>
  <path d="M11.5 10.6666C11.5 11.8451 11.5 12.4344 11.8661 12.8005C12.2322 13.1666 12.8215 13.1666 14 13.1666C15.1785 13.1666 15.7678 13.1666 16.1339 12.8005C16.5 12.4344 16.5 11.8451 16.5 10.6666C16.5 9.48811 16.5 8.89886 16.1339 8.53274C15.7678 8.16663 15.1785 8.16663 14 8.16663C12.8215 8.16663 12.2322 8.16663 11.8661 8.53274C11.5 8.89886 11.5 9.48811 11.5 10.6666Z" stroke="#8C8EA5" stroke-width="1.25"/>
  <path d="M4 5.66665L4 12.3333" stroke="#8C8EA5" stroke-width="1.25" stroke-linecap="round" stroke-linejoin="round"/>
  <path d="M11.5 10.6666H9C6.23858 10.6666 4 8.42805 4 5.66663" stroke="#8C8EA5" stroke-width="1.25" stroke-linecap="round" stroke-linejoin="round"/>
</svg>