<svg width="18" height="18" viewBox="0 0 18 18" fill="none" xmlns="http://www.w3.org/2000/svg">
  <path d="M12.3333 7.33331L14.1245 7.87066C15.2688 8.21396 15.841 8.38561 16.1705 8.82848C16.5 9.27135 16.5 9.86871 16.5 11.0634L16.5 17.3333" stroke="#8C8EA5" stroke-width="1.25" stroke-linejoin="round"/>
  <path d="M5.66669 6.5L8.16669 6.5M5.66669 9.83333L8.16669 9.83333" stroke="#8C8EA5" stroke-width="1.25" stroke-linecap="round" stroke-linejoin="round"/>
  <path d="M8.99998 17.3334V14.8334C8.99998 14.0477 8.99998 13.6548 8.7559 13.4108C8.51182 13.1667 8.11899 13.1667 7.33331 13.1667H6.49998C5.71431 13.1667 5.32147 13.1667 5.07739 13.4108C4.83331 13.6548 4.83331 14.0477 4.83331 14.8334L4.83331 17.3334" stroke="#8C8EA5" stroke-width="1.25" stroke-linejoin="round"/>
  <path d="M0.666687 17.3333H17.3334" stroke="#8C8EA5" stroke-width="1.25" stroke-linecap="round"/>
  <path d="M1.5 17.3334L1.5 4.59772C1.5 2.50543 1.5 1.45928 2.15932 0.940224C2.81864 0.421166 3.78951 0.702977 5.73127 1.2666L9.89793 2.47604C11.0697 2.81616 11.6556 2.98622 11.9945 3.44973C12.3333 3.91324 12.3333 4.54455 12.3333 5.80716L12.3333 17.3334" stroke="#8C8EA5" stroke-width="1.25" stroke-linecap="round" stroke-linejoin="round"/>
</svg>