<svg width="12" height="12" viewBox="0 0 12 12" fill="none" xmlns="http://www.w3.org/2000/svg">
  <path d="M2.90021 11.3196C2.49585 11.3196 2.12464 11.2202 1.78657 11.0213C1.4485 10.8192 1.18004 10.5507 0.981172 10.2159C0.782308 9.87786 0.682877 9.50665 0.682877 9.1023C0.682877 8.69462 0.782308 8.32341 0.981172 7.98866C1.18004 7.65059 1.4485 7.38047 1.78657 7.17829C2.12464 6.97611 2.49585 6.87502 2.90021 6.87502H3.99396V5.11508H2.90021C2.49585 5.11508 2.12464 5.01565 1.78657 4.81678C1.4485 4.61792 1.18004 4.35111 0.981172 4.01636C0.782308 3.67829 0.682877 3.30542 0.682877 2.89775C0.682877 2.49008 0.782308 2.11887 0.981172 1.78411C1.18004 1.44936 1.4485 1.18255 1.78657 0.983687C2.12464 0.781509 2.49585 0.68042 2.90021 0.68042C3.30788 0.68042 3.67909 0.781509 4.01384 0.983687C4.35191 1.18255 4.62038 1.44936 4.81924 1.78411C5.02142 2.11887 5.12251 2.49008 5.12251 2.89775V3.98156H6.88742V2.89775C6.88742 2.49008 6.98685 2.11887 7.18572 1.78411C7.38458 1.44936 7.65139 1.18255 7.98614 0.983687C8.32421 0.781509 8.69708 0.68042 9.10475 0.68042C9.51242 0.68042 9.88363 0.781509 10.2184 0.983687C10.5531 1.18255 10.82 1.44936 11.0188 1.78411C11.2177 2.11887 11.3171 2.49008 11.3171 2.89775C11.3171 3.30542 11.2177 3.67829 11.0188 4.01636C10.82 4.35111 10.5531 4.61792 10.2184 4.81678C9.88363 5.01565 9.51242 5.11508 9.10475 5.11508H8.01597V6.87502H9.10475C9.51242 6.87502 9.88363 6.97611 10.2184 7.17829C10.5531 7.38047 10.82 7.65059 11.0188 7.98866C11.2177 8.32341 11.3171 8.69462 11.3171 9.1023C11.3171 9.50665 11.2177 9.87786 11.0188 10.2159C10.82 10.5507 10.5531 10.8192 10.2184 11.0213C9.88363 11.2202 9.51242 11.3196 9.10475 11.3196C8.69708 11.3196 8.32421 11.2202 7.98614 11.0213C7.65139 10.8192 7.38458 10.5507 7.18572 10.2159C6.98685 9.87786 6.88742 9.50665 6.88742 9.1023V8.00854H5.12251V9.1023C5.12251 9.50665 5.02142 9.87786 4.81924 10.2159C4.62038 10.5507 4.35191 10.8192 4.01384 11.0213C3.67909 11.2202 3.30788 11.3196 2.90021 11.3196ZM2.90021 10.1861C3.10238 10.1861 3.28468 10.138 3.44708 10.0419C3.6128 9.94581 3.74538 9.81489 3.84481 9.64917C3.94424 9.48345 3.99396 9.30116 3.99396 9.1023V8.00854H2.90021C2.70134 8.00854 2.51905 8.05826 2.35333 8.15769C2.18761 8.25381 2.05504 8.38473 1.9556 8.55045C1.85949 8.71617 1.81143 8.90012 1.81143 9.1023C1.81143 9.30116 1.85949 9.48345 1.9556 9.64917C2.05504 9.81489 2.18761 9.94581 2.35333 10.0419C2.51905 10.138 2.70134 10.1861 2.90021 10.1861ZM2.90021 3.98156H3.99396V2.89775C3.99396 2.69557 3.94424 2.51328 3.84481 2.35087C3.74538 2.18515 3.6128 2.05424 3.44708 1.95812C3.28468 1.862 3.10238 1.81394 2.90021 1.81394C2.70134 1.81394 2.51905 1.862 2.35333 1.95812C2.18761 2.05424 2.05504 2.18515 1.9556 2.35087C1.85949 2.51328 1.81143 2.69557 1.81143 2.89775C1.81143 3.09993 1.85949 3.28388 1.9556 3.4496C2.05504 3.612 2.18761 3.74126 2.35333 3.83738C2.51905 3.9335 2.70134 3.98156 2.90021 3.98156ZM8.01597 3.98156H9.10475C9.30693 3.98156 9.48922 3.9335 9.65163 3.83738C9.81403 3.74126 9.94329 3.612 10.0394 3.4496C10.1388 3.28388 10.1886 3.09993 10.1886 2.89775C10.1886 2.69557 10.1388 2.51328 10.0394 2.35087C9.94329 2.18515 9.81403 2.05424 9.65163 1.95812C9.48922 1.862 9.30693 1.81394 9.10475 1.81394C8.90257 1.81394 8.71863 1.862 8.55291 1.95812C8.38719 2.05424 8.25627 2.18515 8.16015 2.35087C8.06403 2.51328 8.01597 2.69557 8.01597 2.89775V3.98156ZM9.10475 10.1861C9.30693 10.1861 9.48922 10.138 9.65163 10.0419C9.81403 9.94581 9.94329 9.81489 10.0394 9.64917C10.1388 9.48345 10.1886 9.30116 10.1886 9.1023C10.1886 8.90012 10.1388 8.71617 10.0394 8.55045C9.94329 8.38473 9.81403 8.25381 9.65163 8.15769C9.48922 8.05826 9.30693 8.00854 9.10475 8.00854H8.01597V9.1023C8.01597 9.30116 8.06403 9.48345 8.16015 9.64917C8.25627 9.81489 8.38719 9.94581 8.55291 10.0419C8.71863 10.138 8.90257 10.1861 9.10475 10.1861ZM5.12251 6.87502H6.88742V5.11508H5.12251V6.87502Z" fill="#B3B4CE"/>
</svg>